<?xml version="1.0" encoding="utf-8"?>
<?xml-stylesheet type="text/xsl" href="rss1.xsl"?>
<rss version="2.0" xmlns:atom="http://www.w3.org/2005/Atom" xmlns:content="http://purl.org/rss/1.0/modules/content/" xmlns:dc="http://purl.org/dc/elements/1.1/" xmlns:media="http://search.yahoo.com/mrss/">
<channel>
 <title>Getty</title>
 <link>http://www.gettyimg.com/</link>
 <atom:link href="http://www.gettyimg.com/" rel="self" type="application/rss+xml" />

 
                <item>
                <title><![CDATA[【Cinema Center】SERIES - Selena + Restaurant - Season 1 - 1080p MAX WEB-DL DDP2.0 x264-LAZY]]></title>
                <link><![CDATA[https://sharemania.us/threads/selena-restaurant-season-1-1080p-max-web-dl-ddp2-0-x264-lazy.244803/]]></link>
                <description><![CDATA[<article>
<blockquote class="messageText SelectQuoteContainer ugc baseHtml">
Selena + Restaurant:<img src="https://artworks.thetvdb.com/banners/v4/series/448288/banners/662ff439f2fa7.jpg" class="bbCodeImage LbImage" alt="[​IMG]" data-url="https://artworks.thetvdb.com/banners/v4/series/448288/banners/662ff439f2fa7.jpg" style=""> <br>
<br>
<div class="bbCodeBlock bbCodeQuote">
<aside>
<blockquote class="quoteContainer"><div class="quote"><i><b>Synopsis:</b></i><br>
Selena Gomez heads out of her home kitchen and into the kitchens of some of LA’s hottest restaurants, with chefs teaching and testing Gomez to see how quickly she can learn the ropes with the ultimate goal of creating a dish good enough to make each restaurant’s menu.</div><div class="quoteExpand">Click to expand...</div></blockquote>
</aside>
</div>
<div class="ToggleTriggerAnchor bbCodeSpoilerContainer">
<button type="button" class="button bbCodeSpoilerButton ToggleTrigger Tooltip JsOnly" data-target="> .SpoilerTarget"><span>Spoiler: <span class="SpoilerTitle">MediaInfo</span></span></button>
<div class="SpoilerTarget bbCodeSpoilerText">General<br>
Unique ID : 217863815628055181488571443658262276278 (0xA3E70B6CFAE2919C25F814D6B89F68B6)<br>
Complete name : Selena.+.Restaurant.S01E01.Selena.and.CUT.Steakhouse.1080p.MAX.WEB-DL.DDP2.0.x264-LAZY.mkv<br>
Format : Matroska<br>
Format version : Version 4<br>
File size : 761 MiB<br>
Duration : 21 min 30 s<br>
Overall bit rate mode : Variable<br>
Overall bit rate : 4 948 kb/s<br>
Encoded date : UTC 2024-05-18 19:33:46<br>
Writing application : mkvmerge v84.0 ('Sleeper') 64-bit<br>
Writing library : libebml v1.4.5 + libmatroska v1.7.1<br>
<br>
Video<br>
ID : 1<br>
Format : AVC<br>
Format/Info : Advanced Video Codec<br>
Format profile : High@L4.1<br>
Format settings : CABAC / 4 Ref Frames<br>
Format settings, CABAC : Yes<br>
Format settings, Reference frames : 4 frames<br>
Codec ID : V_MPEG4/ISO/AVC<br>
Duration : 21 min 30 s<br>
Bit rate mode : Variable<br>
Bit rate : 4 818 kb/s<br>
Maximum bit rate : 10 000 kb/s<br>
Width : 1 920 pixels<br>
Height : 1 080 pixels<br>
Display aspect ratio : 16:9<br>
Frame rate mode : Constant<br>
Frame rate : 23.976 (24000/1001) FPS<br>
Color space : YUV<br>
Chroma subsampling : 4:2:0<br>
Bit depth : 8 bits<br>
Scan type : Progressive<br>
Bits/(Pixel*Frame) : 0.097<br>
Stream size : 741 MiB (97%)<br>
Writing library : x264 core 164<br>
Encoding settings : cabac=1 / ref=4 / deblock=1:0:0 / analyse=0x3:0x133 / me=umh / subme=10 / psy=1 / psy_rd=1.00:0.00 / mixed_ref=1 / me_range=24 / chroma_me=1 / trellis=2 / 8x8dct=1 / cqm=0 / deadzone=21,11 / fast_pskip=1 / chroma_qp_offset=-2 / threads=24 / lookahead_threads=2 / sliced_threads=0 / nr=0 / decimate=1 / interlaced=0 / bluray_compat=0 / stitchable=1 / constrained_intra=0 / bframes=3 / b_pyramid=2 / b_adapt=2 / b_bias=0 / direct=3 / weightb=1 / open_gop=0 / weightp=2 / keyint=96 / keyint_min=49 / scenecut=0 / intra_refresh=0 / rc_lookahead=96 / rc=crf / mbtree=1 / crf=20.0 / qcomp=0.60 / qpmin=0 / qpmax=69 / qpstep=4 / vbv_maxrate=10000 / vbv_bufsize=40000 / crf_max=0.0 / nal_hrd=vbr / filler=0 / ip_ratio=1.40 / aq=1:1.00<br>
Default : Yes<br>
Forced : No<br>
Color range : Limited<br>
Color primaries : BT.709<br>
Transfer characteristics : BT.709<br>
Matrix coefficients : BT.709<br>
<br>
Audio<br>
ID : 2<br>
Format : E-AC-3<br>
Format/Info : Enhanced AC-3<br>
Commercial name : Dolby Digital Plus<br>
Codec ID : A_EAC3<br>
Duration : 21 min 30 s<br>
Bit rate mode : Constant<br>
Bit rate : 128 kb/s<br>
Channel(s) : 2 channels<br>
Channel layout : L R<br>
Sampling rate : 48.0 kHz<br>
Frame rate : 31.250 FPS (1536 SPF)<br>
Compression mode : Lossy<br>
Stream size : 19.7 MiB (3%)<br>
Language : English<br>
Service kind : Complete Main<br>
Default : Yes<br>
Forced : No<br>
<br>
Text<br>
ID : 3<br>
Format : UTF-8<br>
Codec ID : S_TEXT/UTF8<br>
Codec ID/Info : UTF-8 Plain Text<br>
Duration : 20 min 57 s<br>
Bit rate : 116 b/s<br>
Count of elements : 540<br>
Stream size : 17.8 KiB (0%)<br>
Language : English<br>
Default : No<br>
Forced : No<br>
<br>
Menu<br>
00:00:00.000 : en:Scene 1<br>
00:21:30.956 : en:Credits</div>
</div><br>
Screenshots:<br>
<img src="https://ptpimg.me/gda30f.jpg" class="bbCodeImage LbImage" alt="[​IMG]" data-url="https://ptpimg.me/gda30f.jpg" style=""> <br>
<br>
<div class="bbCodeBlock bbCodeVfcHH HiddenContent">
<div class="attribution type">Hidden Content:</div>
<blockquote>You must either reply or click 'Like' to see the hidden information contained here.</blockquote>
</div>
<div class="messageTextEndMarker">&nbsp;</div>
</blockquote>
</article>]]></description>
                <author><![CDATA[LazyRips]]></author>
                </item>

                
                <item>
                <title><![CDATA[【Music Video Artist's Collections】Mariah Carey - Best Japan (2018)]]></title>
                <link><![CDATA[https://sharemania.us/threads/mariah-carey-best-japan-2018.244799/]]></link>
                <description><![CDATA[<article>
<blockquote class="messageText SelectQuoteContainer ugc baseHtml">
<div style="text-align: center"><img src="https://i.ibb.co/s3T7GSw/f293041968.jpg" class="bbCodeImage LbImage" alt="[​IMG]" data-url="https://i.ibb.co/s3T7GSw/f293041968.jpg" style=""> ​</div><img src="https://i.ibb.co/FWk8sVx/Mariah-Carey-Best-Japan-2018-mp4-snapshot-00-00-01-093.jpg" class="bbCodeImage LbImage" alt="[​IMG]" data-url="https://i.ibb.co/FWk8sVx/Mariah-Carey-Best-Japan-2018-mp4-snapshot-00-00-01-093.jpg" style=""><br>
<img src="https://i.ibb.co/DKj7n4V/Mariah-Carey-Best-Japan-2018-mp4-thumbs.jpg" class="bbCodeImage LbImage" alt="[​IMG]" data-url="https://i.ibb.co/DKj7n4V/Mariah-Carey-Best-Japan-2018-mp4-thumbs.jpg" style=""><br>
<ol>
<li><span style="font-family: 'Book Antiqua'">Hero</span></li>
<li><span style="font-family: 'Book Antiqua'">Without You</span></li>
<li><span style="font-family: 'Book Antiqua'">Always Be My Baby</span></li>
<li><span style="font-family: 'Book Antiqua'">Emotions</span></li>
<li><span style="font-family: 'Book Antiqua'">One Sweet Day <i>Mariah Carey &amp; Boyz II Men</i></span></li>
<li><span style="font-family: 'Book Antiqua'">Infinity</span></li>
<li><span style="font-family: 'Book Antiqua'">Open Arms</span></li>
<li><span style="font-family: 'Book Antiqua'">Dreamlover</span></li>
<li><span style="font-family: 'Book Antiqua'">I'll Be There <i>Mariah Carey Featuring Trey Lorenz</i></span></li>
<li><span style="font-family: 'Book Antiqua'">Fantasy (Bad Boy Fantasy)<i> Mariah Carey Featuring O.D.B.</i></span></li>
<li><span style="font-family: 'Book Antiqua'">Endless Love <i>Luther Vandross &amp; Mariah Carey</i></span></li>
<li><span style="font-family: 'Book Antiqua'">Honey</span></li>
<li><span style="font-family: 'Book Antiqua'">Thank God I Found You <i>Mariah Carey Featuring Joe &amp; 98 Degrees</i></span></li>
<li><span style="font-family: 'Book Antiqua'">Love Takes Time</span></li>
<li><span style="font-family: 'Book Antiqua'">Vision Of Love</span></li>
<li><span style="font-family: 'Book Antiqua'">Through The Rain</span></li>
<li><span style="font-family: 'Book Antiqua'">We Belong Together</span></li>
<li><span style="font-family: 'Book Antiqua'">Touch My Body</span></li>
<li><span style="font-family: 'Book Antiqua'">All I Want For Christmas Is You</span></li>
</ol><br>
<span style="font-size: 9px">Directors: <br>
Larry Jordan, Mariah Carey, Jeff Preiss, Brett Ratner, Diane Martel, Paul Hunter, Bojan Bazeilli, Wayne Maser<br>
℗ 2018 Sony Records Int'l, Epic, Legacy, Columbia Records</span><br>
<br>
<div style="text-align: center">
<div class="bbCodeBlock bbCodeVfcHH HiddenContent">
<div class="attribution type">Hidden Content:</div>
<blockquote>You must either reply or click 'Like' to see the hidden information contained here.</blockquote>
</div></div>
<div class="messageTextEndMarker">&nbsp;</div>
</blockquote>
</article>]]></description>
                <author><![CDATA[Fan Made]]></author>
                </item>

                
                <item>
                <title><![CDATA[【Requests】[REQ AUD] - John Farnham - Uncovered]]></title>
                <link><![CDATA[https://sharemania.us/threads/john-farnham-uncovered.244800/]]></link>
                <description><![CDATA[<article>
<blockquote class="messageText SelectQuoteContainer ugc baseHtml">
Someone kindly upload this album? Big thanks!<br>
<br>
<a href="https://www.qobuz.com/gb-en/album/uncovered-john-farnham/acbc2tyf3pq2b" target="_blank" class="externalLink" rel="nofollow">https://www.qobuz.com/gb-en/album/uncovered-john-farnham/acbc2tyf3pq2b</a>
<div class="messageTextEndMarker">&nbsp;</div>
</blockquote>
</article>]]></description>
                <author><![CDATA[anonymus]]></author>
                </item>

                
                <item>
                <title><![CDATA[【Cinema Center】SERIES - Lost in the West - Season 1 - 1080p Amazon WEB-DL DDP5.1 H.264-LAZY]]></title>
                <link><![CDATA[https://sharemania.us/threads/lost-in-the-west-season-1-1080p-amazon-web-dl-ddp5-1-h-264-lazy.244801/]]></link>
                <description><![CDATA[<article>
<blockquote class="messageText SelectQuoteContainer ugc baseHtml">
Lost in the West:<img src="https://artworks.thetvdb.com/banners/v4/series/312347/banners/664576337c23e.jpg" class="bbCodeImage LbImage" alt="[​IMG]" data-url="https://artworks.thetvdb.com/banners/v4/series/312347/banners/664576337c23e.jpg" style=""> <br>
<br>
<div class="bbCodeBlock bbCodeQuote">
<aside>
<blockquote class="quoteContainer"><div class="quote"><i><b>Synopsis:</b></i><br>
Stepbrothers Chip and Dave saddle up for a whirlwind adventure when Chip's latest invention accidentally transports them back in time to the Wild West.</div><div class="quoteExpand">Click to expand...</div></blockquote>
</aside>
</div>
<div class="ToggleTriggerAnchor bbCodeSpoilerContainer">
<button type="button" class="button bbCodeSpoilerButton ToggleTrigger Tooltip JsOnly" data-target="> .SpoilerTarget"><span>Spoiler: <span class="SpoilerTitle">MediaInfo</span></span></button>
<div class="SpoilerTarget bbCodeSpoilerText">General<br>
Unique ID : 215970955868592765036929405051218236275 (0xA27A7E3BF795787460B1A9BDC8811373)<br>
Complete name : Lost.in.the.West.S01E01.Part.1.1080p.AMZN.WEB-DL.DDP5.1.H.264-LAZY.mkv<br>
Format : Matroska<br>
Format version : Version 4<br>
File size : 3.20 GiB<br>
Duration : 43 min 57 s<br>
Overall bit rate : 10.4 Mb/s<br>
Encoded date : UTC 2024-05-15 18:02:29<br>
Writing application : mkvmerge v84.0 ('Sleeper') 64-bit<br>
Writing library : libebml v1.4.5 + libmatroska v1.7.1<br>
<br>
Video<br>
ID : 1<br>
Format : AVC<br>
Format/Info : Advanced Video Codec<br>
Format profile : High@L4<br>
Format settings : CABAC / 4 Ref Frames<br>
Format settings, CABAC : Yes<br>
Format settings, Reference frames : 4 frames<br>
Codec ID : V_MPEG4/ISO/AVC<br>
Duration : 43 min 57 s<br>
Bit rate mode : Constant<br>
Bit rate : 10 000 kb/s<br>
Width : 1 920 pixels<br>
Height : 1 080 pixels<br>
Display aspect ratio : 16:9<br>
Frame rate mode : Constant<br>
Frame rate : 23.976 (24000/1001) FPS<br>
Color space : YUV<br>
Chroma subsampling : 4:2:0<br>
Bit depth : 8 bits<br>
Scan type : Progressive<br>
Bits/(Pixel*Frame) : 0.201<br>
Stream size : 3.00 GiB (94%)<br>
Default : Yes<br>
Forced : No<br>
Color range : Limited<br>
Color primaries : BT.709<br>
Transfer characteristics : BT.709<br>
Matrix coefficients : BT.709<br>
<br>
Audio<br>
ID : 2<br>
Format : E-AC-3<br>
Format/Info : Enhanced AC-3<br>
Commercial name : Dolby Digital Plus<br>
Codec ID : A_EAC3<br>
Duration : 43 min 57 s<br>
Bit rate mode : Constant<br>
Bit rate : 640 kb/s<br>
Channel(s) : 6 channels<br>
Channel layout : L R C LFE Ls Rs<br>
Sampling rate : 48.0 kHz<br>
Frame rate : 31.250 FPS (1536 SPF)<br>
Compression mode : Lossy<br>
Stream size : 201 MiB (6%)<br>
Language : English<br>
Service kind : Complete Main<br>
Default : Yes<br>
Forced : No<br>
<br>
Text<br>
ID : 3<br>
Format : UTF-8<br>
Codec ID : S_TEXT/UTF8<br>
Codec ID/Info : UTF-8 Plain Text<br>
Duration : 43 min 22 s<br>
Bit rate : 65 b/s<br>
Count of elements : 769<br>
Stream size : 20.7 KiB (0%)<br>
Title : SDH<br>
Language : English<br>
Default : No<br>
Forced : No</div>
</div><br>
Screenshots:<br>
<img src="https://ptpimg.me/9d1gn8.jpg" class="bbCodeImage LbImage" alt="[​IMG]" data-url="https://ptpimg.me/9d1gn8.jpg" style=""> <br>
<br>
<div class="bbCodeBlock bbCodeVfcHH HiddenContent">
<div class="attribution type">Hidden Content:</div>
<blockquote>You must either reply or click 'Like' to see the hidden information contained here.</blockquote>
</div>
<div class="messageTextEndMarker">&nbsp;</div>
</blockquote>
</article>]]></description>
                <author><![CDATA[LazyRips]]></author>
                </item>

                
                <item>
                <title><![CDATA[【Albums (lossless)】[REQ AUD] (Z SIDES) ZAYN - ROOM UNDER THE STAIRS 24bits]]></title>
                <link><![CDATA[https://sharemania.us/threads/req-aud-z-sides-zayn-room-under-the-stairs-24bits.244802/]]></link>
                <description><![CDATA[<article>
<blockquote class="messageText SelectQuoteContainer ugc baseHtml">
Can someone apload in 24bit, please?
<div class="messageTextEndMarker">&nbsp;</div>
</blockquote>
</article>]]></description>
                <author><![CDATA[Rainara2796]]></author>
                </item>

                </channel></rss>